# xmcd
#
# Track frame offsets: 
#        150
#        12820
#        28910
#        43560
#        68250
#        81042
#        100345
#        110820
#        133055
#        160732
#        182905
#        203742
#
# Disc length: 2903 seconds
#
# Revision: 15
# Processed by: cddbd v1.5.2PL0 Copyright (c) Steve Scherf et al.
# Submitted via: ExactAudioCopyFreeDBPlugin 1.0
#
DISCID=990b550c
DTITLE=BOB DYLAN - Greatest Hits
DYEAR=1967
DGENRE=Blues
TTITLE0=Blowin' In The Wind
TTITLE1=It Ain't Me Babe
TTITLE2=The Times They Are A-Changin'
TTITLE3=Mr Tambourine Man
TTITLE4=She Belongs To Me
TTITLE5=It's All Over Now, Baby Blue
TTITLE6=Subterranean Homesick Blues
TTITLE7=One Of Us Must Know
TTITLE8=Like A Rolling Stone
TTITLE9=Just Like A Woman
TTITLE10=Rainy Day Women Nos. 12 and 35
TTITLE11=I Want You
EXTD=YEAR: 1967
EXTT0=
EXTT1=
EXTT2=
EXTT3=
EXTT4=
EXTT5=
EXTT6=
EXTT7=
EXTT8=
EXTT9=
EXTT10=
EXTT11=
PLAYORDER=
